<?xml version="1.0" encoding="utf-8"?>
<!-- SVG made by Alessandro Aiuti for a Roma Tre University project - All right reserved -->
<!DOCTYPE svg PUBLIC "-//W3C//DTD SVG 1.1//EN" "http://www.w3.org/Graphics/SVG/1.1/DTD/svg11.dtd">
<svg version="1.1" xmlns="http://www.w3.org/2000/svg" xmlns:xlink="http://www.w3.org/1999/xlink" x="0px" y="0px"
	 width="100px" height="100px" viewBox="0 0 500 500" style="enable-background:new 0 0 500 500;"
	 xml:space="preserve">
  <!-- <polygon class="becco" points="10,300 50,130 60,140" /> -->
  <g>
    <path d="M 180 160 C 160 50, 180 50, 200 160" fill="LightGrey"/> 
    <path d="M 10 250 L 50 130 L 55 140
            M 40 140 C 40 100, 90 100, 90 140
            C 100 130, 400 120, 410 160
            C 400 250, 100 150, 90 140
            C 90 170, 40 170, 40 140
            
            M 170 168.1
            L 150 200 L 110 240 L 111 241 L 151 200 L 171 168.3
            M 200 176
            L 180 225 L 140 275 L 142 277 L 182 227 L 201 176.3


            M 250 187
            L 260 220 L 295 260 L 296 261 L 261 220 L 251 187.3
            M 285 193
            L 305 240 L 350 295 L 354 296 L 309 241 L 287 193.5" fill="DimGrey"/>
    <path d="M 210 150 C 240 50, 290 50, 260 165" fill="LightGrey"/>
    <circle cx="60" cy="130" r="8" fill="white" stroke="black"/>
    <circle cx="56" cy="130" r="2" fill="black"/> 
  </g>            
</svg>


